# xmcd
#
# Track frame offsets:
#	150
#	14229
#	30689
#	44635
#	59724
#	73951
#	86317
#	100475
#	114321
#	128695
#	142055
#	156624
#	170926
#	184529
#	195829
#	208990
#	223716
#	238095
#	252053
#	266681
#	279034
#	291943
#	306116
#	319983
#	331388
#	344147
#
# Disc length: 4720 seconds
# Revision: 2
# Processed by: cddbd v1.5.2PL0 Copyright (c) Steve Scherf et al.
# Submitted via: dBpowerAMP V12.0
#
DISCID=a9126e1a
DTITLE=Various Artist - Roll and Tumble Blues
DYEAR=2004
DGENRE=Blues
TTITLE0=Bayless Rose - Frisco Blues
TTITLE1=Willie Harris - Never Drive a Stranger from Your Door
TTITLE2=Sam Collins - Slow Mama Slow
TTITLE3=Jimmie Davis - Sewing Machine Blues
TTITLE4=King Solomon Hill - Whoopee Blues
TTITLE5=Georgia Browns - Decatur Street 81
TTITLE6=Curley Weaver - No No Blues
TTITLE7=Fred McMullen - DeKalb Chain Gang
TTITLE8=Ruth Willis - Experience Blues
TTITLE9=Cliff Carlisle - Ash Can Blues
TTITLE10=Tampa Red - Things 'Bout Coming My Way
TTITLE11=Buddy Moss - Hard Road Blues
TTITLE12=Allen Shaw - Moanin' the Blues
TTITLE13=Dixon Brothers - Weave Room Blues
TTITLE14=Leadbelly - Packing Trunk Blues
TTITLE15=Casey Bill Weldon - W.P.A. Blues
TTITLE16=Kokomo Arnold - The Twelves
TTITLE17=Darby and Tarlton - Slow Wicked Blues
TTITLE18=Big Joe Williams - Wild Cow Blues
TTITLE19=Robert Johnson - Come on in My Kitchen
TTITLE20=Bukka White - Po' Boy
TTITLE21=Roll and Tumble Blues - Homesick and Lonesome Blues
TTITLE22=Robert Lockwood - Little Boy Blue
TTITLE23=Oscar Woods - Don't Sell It (Don't Give It Away)
TTITLE24=Robert Lee McCoy - Friar's Point Blues
TTITLE25=Son House - County Farm Blues
EXTD=
EXTT0=
EXTT1=
EXTT2=
EXTT3=
EXTT4=
EXTT5=
EXTT6=
EXTT7=
EXTT8=
EXTT9=
EXTT10=
EXTT11=
EXTT12=
EXTT13=
EXTT14=
EXTT15=
EXTT16=
EXTT17=
EXTT18=
EXTT19=
EXTT20=
EXTT21=
EXTT22=
EXTT23=
EXTT24=
EXTT25=
PLAYORDER=
